<?xml version="1.0" encoding="UTF-8" standalone="no"?>
<!DOCTYPE svg PUBLIC "-//W3C//DTD SVG 1.1//EN"
 "http://www.w3.org/Graphics/SVG/1.1/DTD/svg11.dtd">
<!-- Generated by graphviz version 12.2.1 (20241206.2353)
 -->
<!-- Title: ComputationGraph Pages: 1 -->
<svg width="1849pt" height="641pt"
 viewBox="0.00 0.00 1848.67 640.97" xmlns="http://www.w3.org/2000/svg" xmlns:xlink="http://www.w3.org/1999/xlink">
<g id="graph0" class="graph" transform="scale(1 1) rotate(0) translate(36 604.97)">
<title>ComputationGraph</title>
<polygon fill="#fafbfc" stroke="none" points="-36,36 -36,-604.97 1812.67,-604.97 1812.67,36 -36,36"/>
<g id="clust3" class="cluster">
<title>cluster_legend</title>
<path fill="#ffffff" stroke="#e5e7eb" d="M268.1,-298.97C268.1,-298.97 1183.87,-298.97 1183.87,-298.97 1189.87,-298.97 1195.87,-304.97 1195.87,-310.97 1195.87,-310.97 1195.87,-548.97 1195.87,-548.97 1195.87,-554.97 1189.87,-560.97 1183.87,-560.97 1183.87,-560.97 268.1,-560.97 268.1,-560.97 262.1,-560.97 256.1,-554.97 256.1,-548.97 256.1,-548.97 256.1,-310.97 256.1,-310.97 256.1,-304.97 262.1,-298.97 268.1,-298.97"/>
<text text-anchor="start" x="687.36" y="-544.67" font-family="SF Pro Display, -apple-system, BlinkMacSystemFont, Segoe UI, Roboto, Arial" font-weight="bold" font-size="14.00" fill="#374151">Node Types</text>
</g>
<!-- HandleId(632) -->
<g id="node1" class="node">
<title>HandleId(632)</title>
<ellipse fill="#06b6d4" stroke="black" cx="1437.45" cy="-81.97" rx="69.58" ry="69.58"/>
<ellipse fill="none" stroke="black" cx="1437.45" cy="-81.97" rx="73.58" ry="73.58"/>
<text text-anchor="middle" x="1437.45" y="-79.02" font-family="SF Pro Display, -apple-system, BlinkMacSystemFont, Segoe UI, Roboto, Arial" font-size="11.00" fill="white">softmax layer_act</text>
</g>
<!-- Softmax_bf7168d1fec51913 -->
<g id="node6" class="node">
<title>Softmax_bf7168d1fec51913</title>
<ellipse fill="#06b6d4" stroke="black" cx="1733.85" cy="-81.97" rx="38.82" ry="38.82"/>
<ellipse fill="none" stroke="black" cx="1733.85" cy="-81.97" rx="42.82" ry="42.82"/>
<text text-anchor="middle" x="1733.85" y="-79.02" font-family="SF Pro Display, -apple-system, BlinkMacSystemFont, Segoe UI, Roboto, Arial" font-size="11.00" fill="white">Softmax</text>
</g>
<!-- HandleId(632)&#45;&gt;Softmax_bf7168d1fec51913 -->
<g id="edge13" class="edge">
<title>HandleId(632)&#45;&gt;Softmax_bf7168d1fec51913</title>
<path fill="none" stroke="#2e86ab" stroke-width="2" d="M1507.69,-105.33C1561.32,-110.86 1633.99,-110.09 1682.33,-103.02"/>
<polygon fill="#2e86ab" stroke="#2e86ab" stroke-width="2" points="1682.7,-106.51 1691.99,-101.42 1681.55,-99.6 1682.7,-106.51"/>
</g>
<!-- Add_b9484707a4927afe -->
<g id="node2" class="node">
<title>Add_b9484707a4927afe</title>
<polygon fill="#3b82f6" stroke="black" points="1164.96,-81.97 1150.82,-105.98 1122.53,-105.98 1108.38,-81.97 1122.53,-57.97 1150.82,-57.97 1164.96,-81.97"/>
<text text-anchor="middle" x="1136.67" y="-79.02" font-family="SF Pro Display, -apple-system, BlinkMacSystemFont, Segoe UI, Roboto, Arial" font-size="11.00" fill="white">Add</text>
</g>
<!-- Add_b9484707a4927afe&#45;&gt;HandleId(632) -->
<g id="edge12" class="edge">
<title>Add_b9484707a4927afe&#45;&gt;HandleId(632)</title>
<path fill="none" stroke="#2e86ab" stroke-width="2" d="M1163.23,-78.43C1270.48,-64.16 1314.51,-58.93 1352.89,-62.75"/>
<polygon fill="#2e86ab" stroke="#2e86ab" stroke-width="2" points="1352.4,-66.22 1362.76,-64.01 1353.29,-59.27 1352.4,-66.22"/>
</g>
<!-- HandleId(572) -->
<g id="node3" class="node">
<title>HandleId(572)</title>
<ellipse fill="#f59e0b" stroke="black" cx="866.27" cy="-140.97" rx="35.64" ry="20.79"/>
<text text-anchor="middle" x="866.27" y="-138.02" font-family="SF Pro Display, -apple-system, BlinkMacSystemFont, Segoe UI, Roboto, Arial" font-size="11.00" fill="white">col_vec</text>
</g>
<!-- HandleId(572)&#45;&gt;Add_b9484707a4927afe -->
<g id="edge10" class="edge">
<title>HandleId(572)&#45;&gt;Add_b9484707a4927afe</title>
<path fill="none" stroke="#2e86ab" stroke-width="2" d="M894.57,-128.02C1011.69,-74.55 1033.43,-67.29 1098.11,-76.07"/>
<polygon fill="#2e86ab" stroke="#2e86ab" stroke-width="2" points="1097.33,-79.49 1107.73,-77.45 1098.33,-72.56 1097.33,-79.49"/>
</g>
<!-- HandleId(619) -->
<g id="node4" class="node">
<title>HandleId(619)</title>
<polygon fill="#8b5cf6" stroke="black" points="318.19,-239.37 270.04,-209.97 318.19,-180.57 366.34,-209.97 318.19,-239.37"/>
<text text-anchor="middle" x="318.19" y="-207.02" font-family="SF Pro Display, -apple-system, BlinkMacSystemFont, Segoe UI, Roboto, Arial" font-size="11.00" fill="white">weight</text>
</g>
<!-- Matmul_297b47f6a811a5a0 -->
<g id="node5" class="node">
<title>Matmul_297b47f6a811a5a0</title>
<polygon fill="#3b82f6" stroke="black" points="638.05,-140.97 616.86,-164.98 574.49,-164.98 553.3,-140.97 574.49,-116.97 616.86,-116.97 638.05,-140.97"/>
<text text-anchor="middle" x="595.67" y="-138.02" font-family="SF Pro Display, -apple-system, BlinkMacSystemFont, Segoe UI, Roboto, Arial" font-size="11.00" fill="white">Matmul</text>
</g>
<!-- HandleId(619)&#45;&gt;Matmul_297b47f6a811a5a0 -->
<g id="edge7" class="edge">
<title>HandleId(619)&#45;&gt;Matmul_297b47f6a811a5a0</title>
<path fill="none" stroke="#2e86ab" stroke-width="2" d="M343.3,-195.48C397.19,-165 418.35,-160.02 543.75,-146.49"/>
<polygon fill="#2e86ab" stroke="#2e86ab" stroke-width="2" points="544.05,-149.98 553.62,-145.43 543.3,-143.02 544.05,-149.98"/>
</g>
<!-- Matmul_297b47f6a811a5a0&#45;&gt;HandleId(572) -->
<g id="edge9" class="edge">
<title>Matmul_297b47f6a811a5a0&#45;&gt;HandleId(572)</title>
<path fill="none" stroke="#2e86ab" stroke-width="2" d="M627.92,-128.84C686.47,-107.74 708.33,-108.58 819.82,-131.36"/>
<polygon fill="#2e86ab" stroke="#2e86ab" stroke-width="2" points="818.91,-134.74 829.41,-133.33 820.32,-127.89 818.91,-134.74"/>
</g>
<!-- Softmax_bf7168d1fec51913&#45;&gt;HandleId(632) -->
<g id="edge14" class="edge">
<title>Softmax_bf7168d1fec51913&#45;&gt;HandleId(632)</title>
<path fill="none" stroke="#2e86ab" stroke-width="2" d="M1507.72,-58.61C1561.4,-53.08 1634.13,-53.85 1682.46,-60.94"/>
<polygon fill="#2e86ab" stroke="#2e86ab" stroke-width="2" points="1681.68,-64.36 1692.12,-62.55 1682.83,-57.45 1681.68,-64.36"/>
</g>
<!-- HandleId(558) -->
<g id="node7" class="node">
<title>HandleId(558)</title>
<polygon fill="#10b981" stroke="black" points="88.1,-79.91 44.05,-97.67 0,-79.91 0.04,-51.18 88.06,-51.18 88.1,-79.91"/>
<text text-anchor="middle" x="44.05" y="-69.02" font-family="SF Pro Display, -apple-system, BlinkMacSystemFont, Segoe UI, Roboto, Arial" font-size="11.00" fill="white">input_6</text>
</g>
<!-- HandleId(558)&#45;&gt;Matmul_297b47f6a811a5a0 -->
<g id="edge8" class="edge">
<title>HandleId(558)&#45;&gt;Matmul_297b47f6a811a5a0</title>
<path fill="none" stroke="#2e86ab" stroke-width="2" d="M88.18,-72.36C210.7,-73.78 246.4,-79.09 545.85,-132.14"/>
<polygon fill="#2e86ab" stroke="#2e86ab" stroke-width="2" points="545.02,-135.55 555.48,-133.84 546.24,-128.65 545.02,-135.55"/>
</g>
<!-- HandleId(620) -->
<g id="node8" class="node">
<title>HandleId(620)</title>
<ellipse fill="#f97316" stroke="black" cx="866.27" cy="-23.97" rx="23.97" ry="23.97"/>
<text text-anchor="middle" x="866.27" y="-21.02" font-family="SF Pro Display, -apple-system, BlinkMacSystemFont, Segoe UI, Roboto, Arial" font-size="11.00" fill="white">bias</text>
</g>
<!-- HandleId(620)&#45;&gt;Add_b9484707a4927afe -->
<g id="edge11" class="edge">
<title>HandleId(620)&#45;&gt;Add_b9484707a4927afe</title>
<path fill="none" stroke="#2e86ab" stroke-width="2" d="M890.21,-20.88C1011.59,-5.35 1028.94,-6.83 1106.19,-60.48"/>
<polygon fill="#2e86ab" stroke="#2e86ab" stroke-width="2" points="1103.77,-63.06 1113.97,-65.92 1107.78,-57.32 1103.77,-63.06"/>
</g>
<!-- legend_input -->
<g id="node9" class="node">
<title>legend_input</title>
<polygon fill="#10b981" stroke="black" points="361.39,-339.65 318.19,-354.57 274.99,-339.65 275.03,-315.5 361.35,-315.5 361.39,-339.65"/>
<text text-anchor="start" x="303.94" y="-331.02" font-family="SF Pro Display, -apple-system, BlinkMacSystemFont, Segoe UI, Roboto, Arial" font-weight="bold" font-size="11.00" fill="white">Input</text>
</g>
<!-- legend_func -->
<g id="node10" class="node">
<title>legend_func</title>
<polygon fill="#3b82f6" stroke="black" points="643.07,-332.97 619.37,-354.57 571.98,-354.57 548.28,-332.97 571.98,-311.37 619.37,-311.37 643.07,-332.97"/>
<text text-anchor="start" x="572.8" y="-331.02" font-family="SF Pro Display, -apple-system, BlinkMacSystemFont, Segoe UI, Roboto, Arial" font-weight="bold" font-size="11.00" fill="white">Function</text>
</g>
<!-- legend_input&#45;&gt;legend_func -->
<!-- legend_var -->
<g id="node11" class="node">
<title>legend_var</title>
<ellipse fill="#f59e0b" stroke="black" cx="866.27" cy="-332.97" rx="43.2" ry="21.6"/>
<text text-anchor="start" x="845.27" y="-331.02" font-family="SF Pro Display, -apple-system, BlinkMacSystemFont, Segoe UI, Roboto, Arial" font-weight="bold" font-size="11.00" fill="white">Variable</text>
</g>
<!-- legend_func&#45;&gt;legend_var -->
<!-- legend_output -->
<g id="node12" class="node">
<title>legend_output</title>
<polygon fill="#ef4444" stroke="black" points="1092.89,-326.3 1136.67,-311.37 1180.45,-326.3 1180.41,-350.45 1092.93,-350.45 1092.89,-326.3"/>
<text text-anchor="start" x="1117.92" y="-331.02" font-family="SF Pro Display, -apple-system, BlinkMacSystemFont, Segoe UI, Roboto, Arial" font-weight="bold" font-size="11.00" fill="white">Output</text>
</g>
<!-- legend_var&#45;&gt;legend_output -->
<!-- legend_weight -->
<g id="node13" class="node">
<title>legend_weight</title>
<polygon fill="#8b5cf6" stroke="black" points="318.19,-495.57 268.1,-473.97 318.19,-452.37 368.28,-473.97 318.19,-495.57"/>
<text text-anchor="start" x="299.44" y="-472.02" font-family="SF Pro Display, -apple-system, BlinkMacSystemFont, Segoe UI, Roboto, Arial" font-weight="bold" font-size="11.00" fill="white">Weight</text>
</g>
<!-- legend_bias -->
<g id="node14" class="node">
<title>legend_bias</title>
<ellipse fill="#f97316" stroke="black" cx="595.67" cy="-473.97" rx="43.2" ry="43.2"/>
<text text-anchor="start" x="585.55" y="-472.02" font-family="SF Pro Display, -apple-system, BlinkMacSystemFont, Segoe UI, Roboto, Arial" font-weight="bold" font-size="11.00" fill="white">Bias</text>
</g>
<!-- legend_weight&#45;&gt;legend_bias -->
<!-- legend_loss -->
<g id="node15" class="node">
<title>legend_loss</title>
<polygon fill="#ec4899" stroke="black" points="909.47,-465.02 909.47,-482.92 884.17,-495.57 848.38,-495.57 823.07,-482.92 823.07,-465.02 848.38,-452.37 884.17,-452.37 909.47,-465.02"/>
<text text-anchor="start" x="855.77" y="-472.02" font-family="SF Pro Display, -apple-system, BlinkMacSystemFont, Segoe UI, Roboto, Arial" font-weight="bold" font-size="11.00" fill="white">Loss</text>
</g>
<!-- legend_bias&#45;&gt;legend_loss -->
<!-- legend_activation -->
<g id="node16" class="node">
<title>legend_activation</title>
<ellipse fill="#06b6d4" stroke="black" cx="1136.67" cy="-473.97" rx="43.2" ry="43.2"/>
<ellipse fill="none" stroke="black" cx="1136.67" cy="-473.97" rx="47.2" ry="47.2"/>
<text text-anchor="start" x="1110.05" y="-472.02" font-family="SF Pro Display, -apple-system, BlinkMacSystemFont, Segoe UI, Roboto, Arial" font-weight="bold" font-size="11.00" fill="white">Activation</text>
</g>
<!-- legend_loss&#45;&gt;legend_activation -->
</g>
</svg>
